<svg xmlns="http://www.w3.org/2000/svg" viewBox="0 0 800 500" preserveAspectRatio="xMidYMid slice" style="color: rgb(139 92 246)">
  <defs>
    <linearGradient id="ph2bg" x1="0" y1="0" x2="0" y2="1">
      <stop offset="0%" stop-color="currentColor" stop-opacity="0.18"/>
      <stop offset="100%" stop-color="currentColor" stop-opacity="0.05"/>
    </linearGradient>
  </defs>
  <rect width="800" height="500" fill="url(#ph2bg)"/>
  <g transform="translate(80,60)">
    <rect width="640" height="380" rx="14" fill="currentColor" fill-opacity="0.05" stroke="currentColor" stroke-opacity="0.3"/>
    <g font-family="ui-monospace, SFMono-Regular, monospace" font-size="14" fill="currentColor">
      <text x="32" y="56" opacity="0.4">1</text>
      <text x="60" y="56" opacity="0.85">const</text>
      <text x="118" y="56" opacity="0.7">project</text>
      <text x="180" y="56" opacity="0.6">=</text>
      <text x="198" y="56" opacity="0.85">{</text>

      <text x="32" y="84" opacity="0.4">2</text>
      <text x="80" y="84" opacity="0.7">name</text>
      <text x="124" y="84" opacity="0.6">:</text>
      <text x="138" y="84" opacity="0.95">'fullstack-app'</text>
      <text x="270" y="84" opacity="0.6">,</text>

      <text x="32" y="112" opacity="0.4">3</text>
      <text x="80" y="112" opacity="0.7">stack</text>
      <text x="128" y="112" opacity="0.6">:</text>
      <text x="142" y="112" opacity="0.7">[</text>
      <text x="156" y="112" opacity="0.95">'next'</text>
      <text x="206" y="112" opacity="0.6">,</text>
      <text x="218" y="112" opacity="0.95">'node'</text>
      <text x="268" y="112" opacity="0.6">,</text>
      <text x="280" y="112" opacity="0.95">'postgres'</text>
      <text x="364" y="112" opacity="0.7">],</text>

      <text x="32" y="140" opacity="0.4">4</text>
      <text x="80" y="140" opacity="0.7">year</text>
      <text x="120" y="140" opacity="0.6">:</text>
      <text x="134" y="140" opacity="0.95">2025</text>
      <text x="170" y="140" opacity="0.6">,</text>

      <text x="32" y="168" opacity="0.4">5</text>
      <text x="80" y="168" opacity="0.7">live</text>
      <text x="120" y="168" opacity="0.6">:</text>
      <text x="134" y="168" opacity="0.95">true</text>

      <text x="32" y="196" opacity="0.4">6</text>
      <text x="60" y="196" opacity="0.85">};</text>
    </g>
    <line x1="32" y1="220" x2="608" y2="220" stroke="currentColor" stroke-opacity="0.18"/>
    <g transform="translate(32,250)">
      <circle cx="8" cy="8" r="6" fill="currentColor" fill-opacity="0.85"/>
      <rect x="24" y="2" width="160" height="12" rx="3" fill="currentColor" fill-opacity="0.7"/>
      <rect x="24" y="22" width="280" height="8" rx="3" fill="currentColor" fill-opacity="0.3"/>
      <rect x="24" y="38" width="240" height="8" rx="3" fill="currentColor" fill-opacity="0.3"/>
      <rect x="24" y="54" width="200" height="8" rx="3" fill="currentColor" fill-opacity="0.3"/>
    </g>
  </g>
</svg>
