<svg xmlns="http://www.w3.org/2000/svg" viewBox="0 0 800 500" preserveAspectRatio="xMidYMid slice" style="color: rgb(139 92 246)">
  <defs>
    <linearGradient id="ph1bg" x1="0" y1="0" x2="1" y2="1">
      <stop offset="0%" stop-color="currentColor" stop-opacity="0.05"/>
      <stop offset="100%" stop-color="currentColor" stop-opacity="0.15"/>
    </linearGradient>
  </defs>
  <rect width="800" height="500" fill="url(#ph1bg)"/>
  <g transform="translate(100,80)" fill="none" stroke="currentColor" stroke-opacity="0.35" stroke-width="1.5">
    <rect x="0" y="0" width="600" height="340" rx="14"/>
    <line x1="0" y1="60" x2="600" y2="60"/>
    <line x1="180" y1="60" x2="180" y2="340"/>
    <rect x="200" y="80" width="380" height="60" rx="8"/>
    <rect x="200" y="160" width="180" height="60" rx="8"/>
    <rect x="400" y="160" width="180" height="60" rx="8"/>
    <rect x="200" y="240" width="380" height="80" rx="8"/>
  </g>
  <g transform="translate(120,100)" fill="currentColor" fill-opacity="0.5">
    <rect width="40" height="10" rx="3"/>
    <rect y="24" width="30" height="6" rx="3" opacity="0.6"/>
    <rect y="46" width="30" height="6" rx="3" opacity="0.6"/>
    <rect y="68" width="30" height="6" rx="3" opacity="0.6"/>
  </g>
  <text x="400" y="450" text-anchor="middle" fill="currentColor" opacity="0.45" font-family="ui-monospace, monospace" font-size="14">screen preview</text>
</svg>
