<svg xmlns="http://www.w3.org/2000/svg" viewBox="0 0 800 500" preserveAspectRatio="xMidYMid slice" style="color: rgb(139 92 246)">
  <defs>
    <linearGradient id="p3bg" x1="0" y1="0" x2="1" y2="1">
      <stop offset="0%" stop-color="currentColor" stop-opacity="0.18"/>
      <stop offset="100%" stop-color="currentColor" stop-opacity="0.05"/>
    </linearGradient>
  </defs>

  <rect width="800" height="500" fill="url(#p3bg)"/>

  <g transform="translate(80,60)">
    <rect width="640" height="380" rx="14" fill="currentColor" fill-opacity="0.05" stroke="currentColor" stroke-opacity="0.32"/>
    <rect x="0" y="0" width="640" height="44" rx="14" fill="currentColor" fill-opacity="0.08"/>
    <rect x="0" y="30" width="640" height="14" fill="currentColor" fill-opacity="0.08"/>

    <circle cx="22" cy="22" r="5" fill="currentColor" fill-opacity="0.8"/>
    <circle cx="40" cy="22" r="5" fill="currentColor" fill-opacity="0.5"/>
    <circle cx="58" cy="22" r="5" fill="currentColor" fill-opacity="0.3"/>
    <rect x="240" y="14" width="160" height="16" rx="8" fill="currentColor" fill-opacity="0.06" stroke="currentColor" stroke-opacity="0.2"/>

    <g transform="translate(40,80)">
      <rect width="200" height="14" rx="3" fill="currentColor" fill-opacity="0.95"/>
      <rect y="24" width="320" height="10" rx="3" fill="currentColor" fill-opacity="0.5"/>
      <rect y="42" width="280" height="10" rx="3" fill="currentColor" fill-opacity="0.4"/>
      <rect y="72" width="120" height="36" rx="8" fill="currentColor" fill-opacity="0.9"/>
      <rect x="132" y="72" width="120" height="36" rx="8" fill="none" stroke="currentColor" stroke-opacity="0.5" stroke-width="1.5"/>
    </g>

    <g transform="translate(380,80)">
      <rect width="220" height="140" rx="12" fill="currentColor" fill-opacity="0.06" stroke="currentColor" stroke-opacity="0.25"/>
      <rect x="14" y="14" width="60" height="60" rx="10" fill="currentColor" fill-opacity="0.18"/>
      <circle cx="44" cy="44" r="20" fill="currentColor" fill-opacity="0.85"/>
      <rect x="84" y="22" width="120" height="10" rx="3" fill="currentColor" fill-opacity="0.7"/>
      <rect x="84" y="38" width="80" height="8" rx="3" fill="currentColor" fill-opacity="0.4"/>
      <rect x="84" y="56" width="100" height="8" rx="3" fill="currentColor" fill-opacity="0.3"/>
      <rect x="14" y="92" width="192" height="32" rx="8" fill="currentColor" fill-opacity="0.05" stroke="currentColor" stroke-opacity="0.18"/>
    </g>

    <g transform="translate(40,250)">
      <rect width="172" height="100" rx="12" fill="currentColor" fill-opacity="0.07" stroke="currentColor" stroke-opacity="0.25"/>
      <rect x="14" y="14" width="60" height="10" rx="3" fill="currentColor" fill-opacity="0.85"/>
      <rect x="14" y="34" width="120" height="8" rx="3" fill="currentColor" fill-opacity="0.5"/>
      <rect x="14" y="50" width="100" height="8" rx="3" fill="currentColor" fill-opacity="0.35"/>
    </g>
    <g transform="translate(232,250)">
      <rect width="172" height="100" rx="12" fill="currentColor" fill-opacity="0.07" stroke="currentColor" stroke-opacity="0.25"/>
      <rect x="14" y="14" width="60" height="10" rx="3" fill="currentColor" fill-opacity="0.85"/>
      <rect x="14" y="34" width="120" height="8" rx="3" fill="currentColor" fill-opacity="0.5"/>
      <rect x="14" y="50" width="100" height="8" rx="3" fill="currentColor" fill-opacity="0.35"/>
    </g>
    <g transform="translate(424,250)">
      <rect width="172" height="100" rx="12" fill="currentColor" fill-opacity="0.07" stroke="currentColor" stroke-opacity="0.25"/>
      <rect x="14" y="14" width="60" height="10" rx="3" fill="currentColor" fill-opacity="0.85"/>
      <rect x="14" y="34" width="120" height="8" rx="3" fill="currentColor" fill-opacity="0.5"/>
      <rect x="14" y="50" width="100" height="8" rx="3" fill="currentColor" fill-opacity="0.35"/>
    </g>
  </g>
</svg>
