<svg xmlns="http://www.w3.org/2000/svg" viewBox="0 0 800 500" preserveAspectRatio="xMidYMid slice" style="color: rgb(139 92 246)">
  <defs>
    <linearGradient id="p2bg" x1="0" y1="0" x2="1" y2="1">
      <stop offset="0%" stop-color="currentColor" stop-opacity="0.05"/>
      <stop offset="100%" stop-color="currentColor" stop-opacity="0.18"/>
    </linearGradient>
  </defs>

  <rect width="800" height="500" fill="url(#p2bg)"/>

  <g transform="translate(70,60)">
    <rect width="300" height="380" rx="14" fill="currentColor" fill-opacity="0.06" stroke="currentColor" stroke-opacity="0.3"/>
    <rect x="18" y="18" width="160" height="14" rx="3" fill="currentColor" fill-opacity="0.85"/>
    <rect x="18" y="40" width="100" height="8" rx="3" fill="currentColor" fill-opacity="0.4"/>

    <g transform="translate(18,76)">
      <rect width="264" height="60" rx="10" fill="currentColor" fill-opacity="0.08" stroke="currentColor" stroke-opacity="0.25"/>
      <circle cx="26" cy="30" r="11" fill="currentColor" fill-opacity="0.8"/>
      <rect x="48" y="18" width="140" height="8" rx="3" fill="currentColor" fill-opacity="0.7"/>
      <rect x="48" y="34" width="80" height="6" rx="3" fill="currentColor" fill-opacity="0.35"/>
    </g>

    <g transform="translate(18,148)">
      <rect width="264" height="60" rx="10" fill="currentColor" fill-opacity="0.08" stroke="currentColor" stroke-opacity="0.25"/>
      <circle cx="26" cy="30" r="11" fill="currentColor" fill-opacity="0.6"/>
      <rect x="48" y="18" width="120" height="8" rx="3" fill="currentColor" fill-opacity="0.7"/>
      <rect x="48" y="34" width="100" height="6" rx="3" fill="currentColor" fill-opacity="0.35"/>
    </g>

    <g transform="translate(18,220)">
      <rect width="264" height="60" rx="10" fill="currentColor" fill-opacity="0.08" stroke="currentColor" stroke-opacity="0.25"/>
      <circle cx="26" cy="30" r="11" fill="currentColor" fill-opacity="0.45"/>
      <rect x="48" y="18" width="100" height="8" rx="3" fill="currentColor" fill-opacity="0.7"/>
      <rect x="48" y="34" width="70" height="6" rx="3" fill="currentColor" fill-opacity="0.35"/>
    </g>

    <rect x="18" y="304" width="264" height="38" rx="10" fill="currentColor" fill-opacity="0.85"/>
    <rect x="120" y="318" width="60" height="10" rx="3" fill="rgb(255 255 255)" fill-opacity="0.95"/>
  </g>

  <g transform="translate(420,90)">
    <circle cx="160" cy="160" r="140" fill="none" stroke="currentColor" stroke-opacity="0.25" stroke-width="1.5"/>
    <circle cx="160" cy="160" r="100" fill="none" stroke="currentColor" stroke-opacity="0.3" stroke-width="1.5"/>
    <circle cx="160" cy="160" r="60" fill="currentColor" fill-opacity="0.1"/>
    <circle cx="160" cy="160" r="22" fill="currentColor" fill-opacity="0.9"/>

    <circle cx="80" cy="120" r="13" fill="currentColor" fill-opacity="0.85"/>
    <circle cx="240" cy="100" r="10" fill="currentColor" fill-opacity="0.65"/>
    <circle cx="260" cy="220" r="14" fill="currentColor" fill-opacity="0.55"/>
    <circle cx="60" cy="230" r="8" fill="currentColor" fill-opacity="0.5"/>
    <circle cx="200" cy="270" r="10" fill="currentColor" fill-opacity="0.4"/>

    <line x1="160" y1="160" x2="80" y2="120" stroke="currentColor" stroke-opacity="0.35" stroke-width="1.5"/>
    <line x1="160" y1="160" x2="240" y2="100" stroke="currentColor" stroke-opacity="0.35" stroke-width="1.5"/>
    <line x1="160" y1="160" x2="260" y2="220" stroke="currentColor" stroke-opacity="0.35" stroke-width="1.5"/>
    <line x1="160" y1="160" x2="60" y2="230" stroke="currentColor" stroke-opacity="0.35" stroke-width="1.5"/>
    <line x1="160" y1="160" x2="200" y2="270" stroke="currentColor" stroke-opacity="0.35" stroke-width="1.5"/>
  </g>
</svg>
